<svg width="45" height="45" viewBox="0 0 45 45" fill="none" xmlns="http://www.w3.org/2000/svg">
<path d="M18.3777 6.17776C18.3777 5.88896 18.263 5.612 18.0588 5.4078C17.8546 5.20359 17.5776 5.08887 17.2888 5.08887C17 5.08887 16.7231 5.20359 16.5189 5.4078C16.3146 5.612 16.1999 5.88896 16.1999 6.17776V9.44442H15.111C13.6671 9.44442 12.2823 10.018 11.2612 11.0391C10.2402 12.0601 9.66659 13.4449 9.66659 14.8889V15.9778H6.39992C6.11113 15.9778 5.83417 16.0925 5.62996 16.2967C5.42576 16.5009 5.31104 16.7779 5.31104 17.0666C5.31104 17.3554 5.42576 17.6324 5.62996 17.8366C5.83417 18.0408 6.11113 18.1555 6.39992 18.1555H9.66659V21.4222H6.39992C6.11113 21.4222 5.83417 21.5369 5.62996 21.7411C5.42576 21.9453 5.31104 22.2223 5.31104 22.5111C5.31104 22.7999 5.42576 23.0768 5.62996 23.2811C5.83417 23.4853 6.11113 23.6 6.39992 23.6H9.66659V26.8666H6.39992C6.11113 26.8666 5.83417 26.9814 5.62996 27.1856C5.42576 27.3898 5.31104 27.6667 5.31104 27.9555C5.31104 28.2443 5.42576 28.5213 5.62996 28.7255C5.83417 28.9297 6.11113 29.0444 6.39992 29.0444H9.66659V30.1333C9.66659 31.5773 10.2402 32.9621 11.2612 33.9831C12.2823 35.0041 13.6671 35.5778 15.111 35.5778H16.1999V38.8444C16.1999 39.1332 16.3146 39.4102 16.5189 39.6144C16.7231 39.8186 17 39.9333 17.2888 39.9333C17.5776 39.9333 17.8546 39.8186 18.0588 39.6144C18.263 39.4102 18.3777 39.1332 18.3777 38.8444V35.5778H21.6444V38.8444C21.6444 39.1332 21.7591 39.4102 21.9633 39.6144C22.1675 39.8186 22.4445 39.9333 22.7333 39.9333C23.022 39.9333 23.299 39.8186 23.5032 39.6144C23.7074 39.4102 23.8221 39.1332 23.8221 38.8444V35.5778H27.0888V38.8444C27.0888 39.1332 27.2035 39.4102 27.4077 39.6144C27.6119 39.8186 27.8889 39.9333 28.1777 39.9333C28.4665 39.9333 28.7435 39.8186 28.9477 39.6144C29.1519 39.4102 29.2666 39.1332 29.2666 38.8444V35.5778H30.3555C31.7994 35.5778 33.1843 35.0041 34.2053 33.9831C35.2263 32.9621 35.7999 31.5773 35.7999 30.1333V29.0444H39.0666C39.3554 29.0444 39.6323 28.9297 39.8366 28.7255C40.0408 28.5213 40.1555 28.2443 40.1555 27.9555C40.1555 27.6667 40.0408 27.3898 39.8366 27.1856C39.6323 26.9814 39.3554 26.8666 39.0666 26.8666H35.7999V23.6H39.0666C39.3554 23.6 39.6323 23.4853 39.8366 23.2811C40.0408 23.0768 40.1555 22.7999 40.1555 22.5111C40.1555 22.2223 40.0408 21.9453 39.8366 21.7411C39.6323 21.5369 39.3554 21.4222 39.0666 21.4222H35.7999V18.1555H39.0666C39.3554 18.1555 39.6323 18.0408 39.8366 17.8366C40.0408 17.6324 40.1555 17.3554 40.1555 17.0666C40.1555 16.7779 40.0408 16.5009 39.8366 16.2967C39.6323 16.0925 39.3554 15.9778 39.0666 15.9778H35.7999V14.8889C35.7999 13.4449 35.2263 12.0601 34.2053 11.0391C33.1843 10.018 31.7994 9.44442 30.3555 9.44442H29.2666V6.17776C29.2666 5.88896 29.1519 5.612 28.9477 5.4078C28.7435 5.20359 28.4665 5.08887 28.1777 5.08887C27.8889 5.08887 27.6119 5.20359 27.4077 5.4078C27.2035 5.612 27.0888 5.88896 27.0888 6.17776V9.44442H23.8221V6.17776C23.8221 5.88896 23.7074 5.612 23.5032 5.4078C23.299 5.20359 23.022 5.08887 22.7333 5.08887C22.4445 5.08887 22.1675 5.20359 21.9633 5.4078C21.7591 5.612 21.6444 5.88896 21.6444 6.17776V9.44442H18.3777V6.17776ZM24.8805 17.1538L23.9746 20.3333H27.3044C27.4699 20.3335 27.6319 20.3807 27.7715 20.4696C27.9111 20.5585 28.0225 20.6853 28.0926 20.8352C28.1628 20.9851 28.1888 21.1518 28.1676 21.316C28.1464 21.4801 28.0789 21.6348 27.973 21.7619L22.1845 28.709C21.5464 29.4713 20.3203 28.8179 20.6034 27.8641L21.5464 24.6889H18.1599C17.994 24.6891 17.8315 24.6419 17.6916 24.5529C17.5516 24.4639 17.4399 24.3368 17.3697 24.1865C17.2994 24.0362 17.2736 23.869 17.2951 23.7046C17.3167 23.5401 17.3848 23.3852 17.4913 23.2581L23.3017 16.3153C23.9332 15.5574 25.1528 16.2042 24.8827 17.1538H24.8805Z" fill="white"/>
</svg>
