<svg width="60" height="60" viewBox="0 0 60 60" fill="none" xmlns="http://www.w3.org/2000/svg">
<path d="M33.75 10C37.0809 10.0001 40.3652 10.7832 43.3377 12.2861C46.3103 13.789 48.8879 15.9697 50.8626 18.6521C52.8373 21.3345 54.1538 24.4436 54.7058 27.7284C55.2578 31.0133 55.0299 34.3819 54.0404 37.5624C53.0509 40.743 51.3277 43.6464 49.0096 46.0383C46.6916 48.4303 43.8437 50.2439 40.6958 51.3327C37.5479 52.4215 34.1881 52.755 30.8875 52.3064C27.587 51.8578 24.4381 50.6396 21.695 48.75H4.38004C3.90498 48.7499 3.44769 48.5694 3.10056 48.2451C2.75344 47.9208 2.54236 47.4768 2.50998 47.0028C2.4776 46.5289 2.62633 46.0603 2.92612 45.6918C3.22592 45.3233 3.65442 45.0823 4.12504 45.0175L4.38004 45L17.55 45.0025C16.5672 43.8471 15.7107 42.59 14.995 41.2525L9.36754 41.25C8.89248 41.2499 8.43519 41.0694 8.08806 40.7451C7.74094 40.4208 7.52986 39.9768 7.49748 39.5028C7.4651 39.0289 7.61383 38.5603 7.91362 38.1918C8.21342 37.8233 8.64192 37.5823 9.11254 37.5175L9.36754 37.5L13.435 37.5025C12.8133 35.4766 12.4982 33.3692 12.5 31.25C12.5 26.005 14.4 21.205 17.5475 17.5H6.87504C6.39998 17.4999 5.94269 17.3194 5.59556 16.9951C5.24844 16.6708 5.03736 16.2268 5.00498 15.7528C4.9726 15.2789 5.12133 14.8103 5.42112 14.4418C5.72092 14.0733 6.14942 13.8323 6.62004 13.7675L6.87504 13.75H21.6925C25.2361 11.3014 29.4428 9.99309 33.75 10ZM36.635 36.79C35.7491 37.2524 34.765 37.4951 33.7656 37.4977C32.7663 37.5003 31.7809 37.2627 30.8925 36.805L28.1525 39.545C29.7525 40.6275 31.68 41.2625 33.7575 41.2625C35.8425 41.2625 37.7775 40.625 39.38 39.535L36.635 36.79ZM23.755 31.2575C23.755 33.3475 24.395 35.29 25.4925 36.895L28.225 34.1675C27.7481 33.2682 27.4991 32.2655 27.5 31.2475C27.5 30.205 27.7575 29.2225 28.21 28.36L25.4825 25.635C24.3532 27.2932 23.7511 29.2538 23.755 31.26V31.2575ZM42.045 25.6525L39.3075 28.39C39.7659 29.2787 40.0036 30.2647 40.0005 31.2647C39.9975 32.2646 39.7538 33.2491 39.29 34.135L42.035 36.88C43.125 35.2775 43.76 33.3425 43.76 31.2575C43.76 29.1825 43.1275 27.25 42.045 25.6525ZM33.75 28.75C33.4127 28.7349 33.0757 28.7883 32.7596 28.907C32.4434 29.0257 32.1546 29.2073 31.9105 29.4407C31.6664 29.6741 31.4721 29.9545 31.3394 30.2651C31.2067 30.5756 31.1383 30.9098 31.1383 31.2475C31.1383 31.5852 31.2067 31.9195 31.3394 32.23C31.4721 32.5405 31.6664 32.821 31.9105 33.0544C32.1546 33.2878 32.4434 33.4693 32.7596 33.588C33.0757 33.7067 33.4127 33.7601 33.75 33.745C34.3931 33.7162 35.0003 33.4405 35.4451 32.9753C35.89 32.5101 36.1383 31.8912 36.1383 31.2475C36.1383 30.6038 35.89 29.985 35.4451 29.5197C35.0003 29.0545 34.3931 28.7788 33.75 28.75ZM33.7575 21.255C31.7515 21.2521 29.7912 21.8542 28.1325 22.9825L30.8575 25.7075C31.7544 25.2399 32.7514 24.9967 33.7628 24.9989C34.7743 25.0011 35.7702 25.2485 36.665 25.72L39.395 22.9925C37.7345 21.8572 35.7691 21.2515 33.7575 21.255Z" fill="#4385F3"/>
</svg>
