<svg width="60" height="60" viewBox="0 0 60 60" fill="none" xmlns="http://www.w3.org/2000/svg">
<path d="M44.9999 5.62494C45.0006 5.25361 44.891 4.89045 44.685 4.58149C44.479 4.27253 44.1859 4.03169 43.8429 3.8895C43.4999 3.74731 43.1224 3.71017 42.7582 3.78279C42.394 3.85542 42.0597 4.03454 41.7974 4.29744L34.2974 11.7974C34.1234 11.9719 33.9855 12.1789 33.8915 12.4067C33.7976 12.6345 33.7495 12.8785 33.7499 13.1249V23.5987L30.9712 26.3737C30.4153 26.2262 29.833 26.2082 29.2691 26.3212C28.7051 26.4343 28.1747 26.6752 27.7186 27.0255C27.2625 27.3759 26.8929 27.8262 26.6382 28.3419C26.3836 28.8576 26.2508 29.4248 26.2499 29.9999C26.2502 30.5336 26.3643 31.0611 26.5847 31.5471C26.8052 32.0331 27.1268 32.4665 27.5281 32.8183C27.9295 33.1701 28.4013 33.4321 28.912 33.5869C29.4227 33.7418 29.9606 33.7858 30.4897 33.7161C31.0188 33.6464 31.5269 33.4646 31.9801 33.1827C32.4333 32.9009 32.8212 32.5256 33.1177 32.0819C33.4143 31.6382 33.6127 31.1363 33.6997 30.6098C33.7867 30.0833 33.7604 29.5442 33.6224 29.0287L36.4012 26.2499H46.8749C47.1213 26.2504 47.3654 26.2022 47.5932 26.1083C47.8209 26.0144 48.028 25.8764 48.2024 25.7024L55.7024 18.2024C55.9653 17.9402 56.1444 17.6058 56.2171 17.2417C56.2897 16.8775 56.2525 16.5 56.1104 16.1569C55.9682 15.8139 55.7273 15.5208 55.4184 15.3149C55.1094 15.1089 54.7462 14.9993 54.3749 14.9999H44.9999V5.62494ZM52.2899 26.9174C52.9352 31.5868 52.0977 36.3409 49.8956 40.5087C47.6935 44.6765 44.238 48.0474 40.017 50.1456C35.796 52.2438 31.0226 52.9633 26.3706 52.2026C21.7186 51.4419 17.4231 49.2393 14.0903 45.9059C10.7575 42.5724 8.55577 38.2764 7.79596 33.6243C7.03614 28.9722 7.7566 24.1989 9.85563 19.9783C11.9547 15.7577 15.3262 12.3029 19.4944 10.1016C23.6626 7.90034 28.4169 7.06375 33.0862 7.70994L31.6499 9.14619C31.127 9.66847 30.7121 10.2887 30.429 10.9714C30.1459 11.6541 30.0001 12.3859 29.9999 13.1249C26.6624 13.1249 23.3997 14.1146 20.6247 15.9689C17.8496 17.8231 15.6867 20.4587 14.4094 23.5422C13.1322 26.6257 12.798 30.0187 13.4492 33.2921C14.1003 36.5655 15.7075 39.5723 18.0675 41.9324C20.4275 44.2924 23.4343 45.8996 26.7078 46.5507C29.9812 47.2018 33.3742 46.8676 36.4577 45.5904C39.5412 44.3132 42.1767 42.1503 44.031 39.3752C45.8852 36.6001 46.8749 33.3375 46.8749 29.9999C48.3663 29.9986 49.796 29.4051 50.8499 28.3499L52.2899 26.9174ZM29.9999 16.8749C27.404 16.8749 24.8664 17.6447 22.7081 19.0869C20.5497 20.5291 18.8674 22.5789 17.874 24.9772C16.8806 27.3755 16.6207 30.0145 17.1271 32.5605C17.6335 35.1065 18.8836 37.4451 20.7191 39.2807C22.5547 41.1163 24.8934 42.3663 27.4394 42.8727C29.9854 43.3792 32.6244 43.1193 35.0226 42.1259C37.4209 41.1325 39.4708 39.4502 40.913 37.2918C42.3551 35.1334 43.1249 32.5958 43.1249 29.9999H37.9537L37.4849 30.4687C37.3948 31.9093 36.8908 33.2934 36.0335 34.4547C35.1762 35.616 34.002 36.5052 32.6518 37.0157C31.3016 37.5261 29.8328 37.6361 28.4216 37.3324C27.0105 37.0287 25.7169 36.3243 24.6963 35.3036C23.6756 34.2829 22.9711 32.9894 22.6674 31.5782C22.3637 30.1671 22.4737 28.6982 22.9842 27.348C23.4946 25.9979 24.3839 24.8236 25.5452 23.9663C26.7065 23.109 28.0905 22.6051 29.5312 22.5149L29.9999 22.0462V16.8749Z" fill="#4385F3"/>
</svg>
