<svg width="45" height="44" viewBox="0 0 45 44" fill="none" xmlns="http://www.w3.org/2000/svg">
<path d="M9.66659 4.7334C8.51143 4.7334 7.40357 5.19229 6.58675 6.00911C5.76992 6.82594 5.31104 7.93379 5.31104 9.08895V37.4001C5.31104 37.9776 5.54048 38.5316 5.94889 38.94C6.3573 39.3484 6.91123 39.5778 7.48881 39.5778H23.8221C24.1109 39.5778 24.3879 39.4631 24.5921 39.2589C24.7963 39.0547 24.911 38.7777 24.911 38.489V34.1334C24.911 33.8446 25.0258 33.5676 25.23 33.3634C25.4342 33.1592 25.7111 33.0445 25.9999 33.0445H32.5333C32.822 33.0445 33.099 33.1592 33.3032 33.3634C33.5074 33.5676 33.6221 33.8446 33.6221 34.1334V38.489C33.6221 38.7777 33.7369 39.0547 33.9411 39.2589C34.1453 39.4631 34.4222 39.5778 34.711 39.5778H37.9777C38.5553 39.5778 39.1092 39.3484 39.5176 38.94C39.926 38.5316 40.1555 37.9776 40.1555 37.4001V15.6223C40.1555 14.4671 39.6966 13.3593 38.8798 12.5424C38.0629 11.7256 36.9551 11.2667 35.7999 11.2667H27.0888V9.08895C27.0888 7.93379 26.6299 6.82594 25.8131 6.00911C24.9963 5.19229 23.8884 4.7334 22.7333 4.7334H9.66659ZM24.911 11.2667H22.7333C21.5781 11.2667 20.4702 11.7256 19.6534 12.5424C18.8366 13.3593 18.3777 14.4671 18.3777 15.6223V37.4001H7.48881V9.08895C7.48881 8.51137 7.71826 7.95744 8.12667 7.54903C8.53508 7.14062 9.08901 6.91118 9.66659 6.91118H22.7333C23.3108 6.91118 23.8648 7.14062 24.2732 7.54903C24.6816 7.95744 24.911 8.51137 24.911 9.08895V11.2667ZM12.3888 21.0667C12.822 21.0667 13.2374 20.8946 13.5438 20.5883C13.8501 20.282 14.0221 19.8666 14.0221 19.4334C14.0221 19.0002 13.8501 18.5848 13.5438 18.2785C13.2374 17.9721 12.822 17.8001 12.3888 17.8001C11.9556 17.8001 11.5402 17.9721 11.2339 18.2785C10.9276 18.5848 10.7555 19.0002 10.7555 19.4334C10.7555 19.8666 10.9276 20.282 11.2339 20.5883C11.5402 20.8946 11.9556 21.0667 12.3888 21.0667ZM14.0221 12.9001C14.0221 13.3333 13.8501 13.7487 13.5438 14.055C13.2374 14.3613 12.822 14.5334 12.3888 14.5334C11.9556 14.5334 11.5402 14.3613 11.2339 14.055C10.9276 13.7487 10.7555 13.3333 10.7555 12.9001C10.7555 12.4669 10.9276 12.0514 11.2339 11.7451C11.5402 11.4388 11.9556 11.2667 12.3888 11.2667C12.822 11.2667 13.2374 11.4388 13.5438 11.7451C13.8501 12.0514 14.0221 12.4669 14.0221 12.9001ZM12.3888 34.1334C12.822 34.1334 13.2374 33.9613 13.5438 33.655C13.8501 33.3487 14.0221 32.9333 14.0221 32.5001C14.0221 32.0669 13.8501 31.6514 13.5438 31.3451C13.2374 31.0388 12.822 30.8667 12.3888 30.8667C11.9556 30.8667 11.5402 31.0388 11.2339 31.3451C10.9276 31.6514 10.7555 32.0669 10.7555 32.5001C10.7555 32.9333 10.9276 33.3487 11.2339 33.655C11.5402 33.9613 11.9556 34.1334 12.3888 34.1334ZM14.0221 25.9667C14.0221 26.3999 13.8501 26.8154 13.5438 27.1217C13.2374 27.428 12.822 27.6001 12.3888 27.6001C11.9556 27.6001 11.5402 27.428 11.2339 27.1217C10.9276 26.8154 10.7555 26.3999 10.7555 25.9667C10.7555 25.5335 10.9276 25.1181 11.2339 24.8118C11.5402 24.5055 11.9556 24.3334 12.3888 24.3334C12.822 24.3334 13.2374 24.5055 13.5438 24.8118C13.8501 25.1181 14.0221 25.5335 14.0221 25.9667ZM25.4555 21.0667C25.0223 21.0667 24.6068 20.8946 24.3005 20.5883C23.9942 20.282 23.8221 19.8666 23.8221 19.4334C23.8221 19.0002 23.9942 18.5848 24.3005 18.2785C24.6068 17.9721 25.0223 17.8001 25.4555 17.8001C25.8887 17.8001 26.3041 17.9721 26.6104 18.2785C26.9167 18.5848 27.0888 19.0002 27.0888 19.4334C27.0888 19.8666 26.9167 20.282 26.6104 20.5883C26.3041 20.8946 25.8887 21.0667 25.4555 21.0667ZM27.0888 25.9667C27.0888 26.3999 26.9167 26.8154 26.6104 27.1217C26.3041 27.428 25.8887 27.6001 25.4555 27.6001C25.0223 27.6001 24.6068 27.428 24.3005 27.1217C23.9942 26.8154 23.8221 26.3999 23.8221 25.9667C23.8221 25.5335 23.9942 25.1181 24.3005 24.8118C24.6068 24.5055 25.0223 24.3334 25.4555 24.3334C25.8887 24.3334 26.3041 24.5055 26.6104 24.8118C26.9167 25.1181 27.0888 25.5335 27.0888 25.9667ZM33.0777 21.0667C32.6445 21.0667 32.2291 20.8946 31.9228 20.5883C31.6165 20.282 31.4444 19.8666 31.4444 19.4334C31.4444 19.0002 31.6165 18.5848 31.9228 18.2785C32.2291 17.9721 32.6445 17.8001 33.0777 17.8001C33.5109 17.8001 33.9263 17.9721 34.2326 18.2785C34.539 18.5848 34.711 19.0002 34.711 19.4334C34.711 19.8666 34.539 20.282 34.2326 20.5883C33.9263 20.8946 33.5109 21.0667 33.0777 21.0667ZM34.711 25.9667C34.711 26.3999 34.539 26.8154 34.2326 27.1217C33.9263 27.428 33.5109 27.6001 33.0777 27.6001C32.6445 27.6001 32.2291 27.428 31.9228 27.1217C31.6165 26.8154 31.4444 26.3999 31.4444 25.9667C31.4444 25.5335 31.6165 25.1181 31.9228 24.8118C32.2291 24.5055 32.6445 24.3334 33.0777 24.3334C33.5109 24.3334 33.9263 24.5055 34.2326 24.8118C34.539 25.1181 34.711 25.5335 34.711 25.9667Z" fill="white"/>
</svg>
