<svg width="60" height="60" viewBox="0 0 60 60" fill="none" xmlns="http://www.w3.org/2000/svg">
<path d="M31.975 52.5L7.5 28.025V33.025C7.5 34.35 8.025 35.625 8.975 36.55L28.45 56.025C30.4 57.975 33.575 57.975 35.525 56.025L51.05 40.5C53 38.55 53 35.375 51.05 33.425L31.975 52.5Z" fill="black"/>
<path d="M28.45 43.525C30.4 45.475 33.575 45.475 35.525 43.525L51.05 28C53 26.05 53 22.875 51.05 20.925L31.575 1.45C30.6254 0.523255 29.3519 0.00311332 28.025 0L12.5 0C9.75 0 7.5 2.25 7.5 5V20.525C7.5 21.85 8.025 23.125 8.975 24.05L28.45 43.525ZM18.125 7.5C18.9538 7.5 19.7487 7.82924 20.3347 8.41529C20.9208 9.00134 21.25 9.7962 21.25 10.625C21.25 11.4538 20.9208 12.2487 20.3347 12.8347C19.7487 13.4208 18.9538 13.75 18.125 13.75C17.2962 13.75 16.5013 13.4208 15.9153 12.8347C15.3292 12.2487 15 11.4538 15 10.625C15 9.7962 15.3292 9.00134 15.9153 8.41529C16.5013 7.82924 17.2962 7.5 18.125 7.5Z" fill="#4385F3"/>
</svg>
