<svg width="70" height="70" viewBox="0 0 70 70" fill="none" xmlns="http://www.w3.org/2000/svg">
<circle cx="35.4882" cy="35.3305" r="33.5117" stroke="#D9D9D9" stroke-width="2"/>
<path d="M35.5001 29.7329C32.4178 29.7329 29.9025 32.2482 29.9025 35.3304C29.9025 38.4127 32.4178 40.928 35.5001 40.928C38.5823 40.928 41.0976 38.4127 41.0976 35.3304C41.0976 32.2482 38.5823 29.7329 35.5001 29.7329ZM52.2886 35.3304C52.2886 33.0125 52.3096 30.7155 52.1794 28.4017C52.0492 25.7142 51.4361 23.3291 49.4709 21.3638C47.5014 19.3944 45.1205 18.7855 42.433 18.6554C40.115 18.5252 37.818 18.5462 35.5043 18.5462C33.1863 18.5462 30.8893 18.5252 28.5756 18.6554C25.8881 18.7855 23.5029 19.3986 21.5377 21.3638C19.5682 23.3333 18.9594 25.7142 18.8292 28.4017C18.699 30.7197 18.72 33.0167 18.72 35.3304C18.72 37.6442 18.699 39.9454 18.8292 42.2592C18.9594 44.9467 19.5724 47.3318 21.5377 49.297C23.5071 51.2665 25.8881 51.8754 28.5756 52.0055C30.8935 52.1357 33.1905 52.1147 35.5043 52.1147C37.8222 52.1147 40.1192 52.1357 42.433 52.0055C45.1205 51.8754 47.5056 51.2623 49.4709 49.297C51.4403 47.3276 52.0492 44.9467 52.1794 42.2592C52.3138 39.9454 52.2886 37.6484 52.2886 35.3304ZM35.5001 43.943C30.734 43.943 26.8875 40.0966 26.8875 35.3304C26.8875 30.5643 30.734 26.7178 35.5001 26.7178C40.2662 26.7178 44.1127 30.5643 44.1127 35.3304C44.1127 40.0966 40.2662 43.943 35.5001 43.943ZM44.4654 28.3765C43.3526 28.3765 42.454 27.4779 42.454 26.3651C42.454 25.2523 43.3526 24.3537 44.4654 24.3537C45.5782 24.3537 46.4768 25.2523 46.4768 26.3651C46.4772 26.6294 46.4254 26.8911 46.3244 27.1352C46.2234 27.3794 46.0753 27.6013 45.8884 27.7881C45.7016 27.975 45.4797 28.1231 45.2355 28.2241C44.9914 28.3251 44.7296 28.3769 44.4654 28.3765Z" fill="#D9D9D9"/>
</svg>
