<svg width="71" height="70" viewBox="0 0 71 70" fill="none" xmlns="http://www.w3.org/2000/svg">
<circle cx="35.5" cy="35.3305" r="33.5117" stroke="#D9D9D9" stroke-width="2"/>
<g clip-path="url(#clip0_115_430)">
<path d="M28.268 47.8306H22.463V29.1366H28.268V47.8306ZM25.362 26.5866C23.506 26.5866 22 25.0486 22 23.1926C22 22.3009 22.3542 21.4458 22.9847 20.8153C23.6152 20.1848 24.4703 19.8306 25.362 19.8306C26.2537 19.8306 27.1088 20.1848 27.7393 20.8153C28.3698 21.4458 28.724 22.3009 28.724 23.1926C28.724 25.0486 27.218 26.5866 25.362 26.5866ZM49.994 47.8306H44.202V38.7306C44.202 36.5616 44.158 33.7806 41.184 33.7806C38.166 33.7806 37.703 36.1366 37.703 38.5746V47.8306H31.904V29.1366H37.471V31.6866H37.552C38.327 30.2176 40.22 28.6676 43.044 28.6676C48.919 28.6676 49.999 32.5366 49.999 37.5616V47.8306H49.994Z" fill="#D9D9D9"/>
</g>
<defs>
<clipPath id="clip0_115_430">
<rect width="32" height="32" fill="white" transform="translate(20 19.8306)"/>
</clipPath>
</defs>
</svg>
