<svg width="82" height="40" viewBox="0 0 82 40" fill="none" xmlns="http://www.w3.org/2000/svg">
<g clip-path="url(#clip0_115_258)">
<path d="M59.0209 21.6652C63.331 19.1897 67.6295 16.694 71.9543 14.2444C76.0593 11.9183 80.8887 14.0633 81.8196 18.5893C82.3582 21.2076 81.1892 24.0361 78.8254 25.4137C71.0756 29.9298 63.3147 34.4281 55.515 38.8575C53.1009 40.2284 50.6142 39.9762 48.4142 38.2962C46.1793 36.5906 45.475 34.238 45.9991 31.4997C46.5975 29.4153 47.9671 28.0217 49.835 26.9791C52.923 25.2556 55.9614 23.4412 59.0209 21.6652Z" fill="#FABC05"/>
<path d="M62.185 19.8652C57.8858 17.3705 53.5757 14.8953 49.2916 12.3753C45.2247 9.98301 44.6679 4.72797 48.122 1.65853C50.1201 -0.116514 53.154 -0.518754 55.529 0.839646C63.3153 5.29309 71.0913 9.7654 78.8269 14.3052C81.2212 15.7104 82.2458 17.9904 81.8916 20.7356C81.5316 23.5235 79.8468 25.3097 77.2132 26.2252C75.1085 26.7494 73.217 26.2598 71.3802 25.1635C68.3434 23.3507 65.2529 21.6265 62.185 19.8652Z" fill="#109D58"/>
<path d="M23.0009 18.1002C20.2421 19.6675 17.4818 21.232 14.7257 22.8042C13.1138 23.7238 11.5193 24.6749 9.8991 25.5792C6.63414 27.4016 2.7551 26.3334 0.903902 23.1235C-0.862817 20.0605 0.152542 16.0893 3.29686 14.2538C10.9849 9.76641 18.6927 5.31169 26.4284 0.906568C28.8009 -0.444152 31.2623 -0.274232 33.4562 1.34081C35.7717 3.04545 36.5298 5.44417 36.0098 8.25601C35.6873 8.93665 35.4946 9.73441 35.0114 10.2704C34.2261 11.1424 33.3333 11.9773 32.3394 12.5904C29.2636 14.487 26.1186 16.272 23.0009 18.1002Z" fill="#E94436"/>
<path d="M19.8375 19.8583C22.5745 21.4634 25.3095 23.0721 28.049 24.6727C29.6513 25.609 31.2721 26.5143 32.8654 27.465C36.0762 29.3818 37.091 33.275 35.2366 36.483C33.467 39.5447 29.5204 40.6513 26.3585 38.8455C18.6282 34.4311 10.9166 29.9838 3.234 25.4868C0.877837 24.1076 -0.205683 21.891 0.0960774 19.1834C0.414477 16.3255 2.11272 14.4698 4.80808 13.514C5.55848 13.4535 6.34568 13.2212 7.0516 13.3716C8.19944 13.6161 9.36904 13.9716 10.3969 14.5258C13.5774 16.241 16.6954 18.0721 19.8375 19.8583Z" fill="#4385F3"/>
</g>
<defs>
<clipPath id="clip0_115_258">
<rect width="81.92" height="40" fill="white" transform="translate(0.0400391)"/>
</clipPath>
</defs>
</svg>
