<svg width="162" height="58" viewBox="0 0 162 58" fill="none" xmlns="http://www.w3.org/2000/svg">
  <rect x="30.7585" width="35" height="35" transform="rotate(61.5 30.7585 0)" fill="#6B98BF"/>
  <rect x="46.988" y="10.2296" width="35" height="35" transform="rotate(61.5 46.988 10.2296)" fill="#3885C8"/>
  <path d="M78.1195 43.2296V18.9296H84.1495C85.6095 18.9296 86.7695 19.1996 87.6295 19.7396C88.5095 20.2596 89.1495 21.0196 89.5495 22.0196C89.9495 23.0196 90.1495 24.2296 90.1495 25.6496C90.1495 26.9296 89.9195 28.0396 89.4595 28.9796C89.0195 29.9196 88.3595 30.6496 87.4795 31.1696C86.5995 31.6696 85.4995 31.9196 84.1795 31.9196H81.5095V43.2296H78.1195ZM81.5095 29.4896H83.0695C84.0495 29.4896 84.8195 29.3796 85.3795 29.1596C85.9395 28.9396 86.3395 28.5596 86.5795 28.0196C86.8195 27.4596 86.9395 26.6796 86.9395 25.6796C86.9395 24.5196 86.8495 23.6296 86.6695 23.0096C86.5095 22.3896 86.1595 21.9596 85.6195 21.7196C85.0795 21.4796 84.2395 21.3596 83.0995 21.3596H81.5095V29.4896ZM95.3836 43.4696C94.7036 43.4696 94.1036 43.2796 93.5836 42.8996C93.0636 42.4996 92.6536 41.9996 92.3536 41.3996C92.0536 40.7796 91.9036 40.1296 91.9036 39.4496C91.9036 38.3696 92.0836 37.4596 92.4436 36.7196C92.8036 35.9796 93.2936 35.3596 93.9136 34.8596C94.5536 34.3396 95.2836 33.8896 96.1036 33.5096C96.9436 33.1296 97.8236 32.7596 98.7436 32.3996V31.1696C98.7436 30.4696 98.7036 29.8896 98.6236 29.4296C98.5436 28.9696 98.3736 28.6296 98.1136 28.4096C97.8736 28.1696 97.5036 28.0496 97.0036 28.0496C96.5636 28.0496 96.2036 28.1496 95.9236 28.3496C95.6636 28.5496 95.4736 28.8396 95.3536 29.2196C95.2336 29.5796 95.1736 30.0096 95.1736 30.5096V31.3796L91.9936 31.2596C92.0336 29.3396 92.4736 27.9296 93.3136 27.0296C94.1536 26.1096 95.4536 25.6496 97.2136 25.6496C98.9336 25.6496 100.154 26.1196 100.874 27.0596C101.594 27.9996 101.954 29.3596 101.954 31.1396V39.0596C101.954 39.5996 101.964 40.1196 101.984 40.6196C102.024 41.1196 102.064 41.5896 102.104 42.0296C102.164 42.4496 102.214 42.8496 102.254 43.2296H99.3136C99.2536 42.9096 99.1736 42.5096 99.0736 42.0296C98.9936 41.5296 98.9336 41.0796 98.8936 40.6796C98.6936 41.3596 98.3036 41.9996 97.7236 42.5996C97.1636 43.1796 96.3836 43.4696 95.3836 43.4696ZM96.6436 40.7096C96.9636 40.7096 97.2636 40.6196 97.5436 40.4396C97.8236 40.2596 98.0736 40.0596 98.2936 39.8396C98.5136 39.5996 98.6636 39.4096 98.7436 39.2696V34.3496C98.2436 34.6296 97.7736 34.9096 97.3336 35.1896C96.8936 35.4696 96.5036 35.7696 96.1636 36.0896C95.8436 36.3896 95.5836 36.7396 95.3836 37.1396C95.2036 37.5196 95.1136 37.9596 95.1136 38.4596C95.1136 39.1596 95.2436 39.7096 95.5036 40.1096C95.7636 40.5096 96.1436 40.7096 96.6436 40.7096ZM104.767 47.5796V45.1196C105.547 45.1196 106.167 45.0796 106.627 44.9996C107.087 44.9396 107.417 44.8096 107.617 44.6096C107.817 44.4296 107.917 44.1696 107.917 43.8296C107.917 43.6496 107.847 43.2496 107.707 42.6296C107.567 42.0096 107.417 41.3496 107.257 40.6496L103.777 25.8896H107.017L109.357 38.8496L111.607 25.8896H114.847L110.707 44.1896C110.527 45.0296 110.197 45.6896 109.717 46.1696C109.237 46.6696 108.617 47.0296 107.857 47.2496C107.117 47.4696 106.217 47.5796 105.157 47.5796H104.767ZM117.085 43.2296V18.9296H120.295V43.2296H117.085ZM128.411 43.4696C127.131 43.4696 126.121 43.2096 125.381 42.6896C124.641 42.1696 124.111 41.4296 123.791 40.4696C123.491 39.5096 123.341 38.3796 123.341 37.0796V32.0396C123.341 30.7396 123.491 29.6096 123.791 28.6496C124.111 27.6896 124.641 26.9496 125.381 26.4296C126.121 25.9096 127.131 25.6496 128.411 25.6496C129.691 25.6496 130.691 25.9096 131.411 26.4296C132.151 26.9496 132.671 27.6896 132.971 28.6496C133.291 29.6096 133.451 30.7396 133.451 32.0396V37.0796C133.451 38.3796 133.291 39.5096 132.971 40.4696C132.671 41.4296 132.151 42.1696 131.411 42.6896C130.691 43.2096 129.691 43.4696 128.411 43.4696ZM128.411 41.0996C129.031 41.0996 129.461 40.9196 129.701 40.5596C129.961 40.1996 130.111 39.7296 130.151 39.1496C130.211 38.5496 130.241 37.9296 130.241 37.2896V31.8596C130.241 31.1996 130.211 30.5796 130.151 29.9996C130.111 29.4196 129.961 28.9496 129.701 28.5896C129.461 28.2096 129.031 28.0196 128.411 28.0196C127.791 28.0196 127.351 28.2096 127.091 28.5896C126.831 28.9496 126.671 29.4196 126.611 29.9996C126.571 30.5796 126.551 31.1996 126.551 31.8596V37.2896C126.551 37.9296 126.571 38.5496 126.611 39.1496C126.671 39.7296 126.831 40.1996 127.091 40.5596C127.351 40.9196 127.791 41.0996 128.411 41.0996ZM139.505 43.4696C138.825 43.4696 138.225 43.2796 137.705 42.8996C137.185 42.4996 136.775 41.9996 136.475 41.3996C136.175 40.7796 136.025 40.1296 136.025 39.4496C136.025 38.3696 136.205 37.4596 136.565 36.7196C136.925 35.9796 137.415 35.3596 138.035 34.8596C138.675 34.3396 139.405 33.8896 140.225 33.5096C141.065 33.1296 141.945 32.7596 142.865 32.3996V31.1696C142.865 30.4696 142.825 29.8896 142.745 29.4296C142.665 28.9696 142.495 28.6296 142.235 28.4096C141.995 28.1696 141.625 28.0496 141.125 28.0496C140.685 28.0496 140.325 28.1496 140.045 28.3496C139.785 28.5496 139.595 28.8396 139.475 29.2196C139.355 29.5796 139.295 30.0096 139.295 30.5096V31.3796L136.115 31.2596C136.155 29.3396 136.595 27.9296 137.435 27.0296C138.275 26.1096 139.575 25.6496 141.335 25.6496C143.055 25.6496 144.275 26.1196 144.995 27.0596C145.715 27.9996 146.075 29.3596 146.075 31.1396V39.0596C146.075 39.5996 146.085 40.1196 146.105 40.6196C146.145 41.1196 146.185 41.5896 146.225 42.0296C146.285 42.4496 146.335 42.8496 146.375 43.2296H143.435C143.375 42.9096 143.295 42.5096 143.195 42.0296C143.115 41.5296 143.055 41.0796 143.015 40.6796C142.815 41.3596 142.425 41.9996 141.845 42.5996C141.285 43.1796 140.505 43.4696 139.505 43.4696ZM140.765 40.7096C141.085 40.7096 141.385 40.6196 141.665 40.4396C141.945 40.2596 142.195 40.0596 142.415 39.8396C142.635 39.5996 142.785 39.4096 142.865 39.2696V34.3496C142.365 34.6296 141.895 34.9096 141.455 35.1896C141.015 35.4696 140.625 35.7696 140.285 36.0896C139.965 36.3896 139.705 36.7396 139.505 37.1396C139.325 37.5196 139.235 37.9596 139.235 38.4596C139.235 39.1596 139.365 39.7096 139.625 40.1096C139.885 40.5096 140.265 40.7096 140.765 40.7096ZM153.178 43.4696C151.718 43.4696 150.628 42.9396 149.908 41.8796C149.188 40.7996 148.828 38.9796 148.828 36.4196V33.0596C148.828 31.7396 148.938 30.5196 149.158 29.3996C149.378 28.2596 149.788 27.3496 150.388 26.6696C151.008 25.9896 151.908 25.6496 153.088 25.6496C153.668 25.6496 154.198 25.7796 154.678 26.0396C155.158 26.2996 155.588 26.6196 155.968 26.9996V18.9296H159.178V43.2296H155.968V42.1196C155.588 42.5196 155.168 42.8496 154.708 43.1096C154.268 43.3496 153.758 43.4696 153.178 43.4696ZM153.988 40.9496C154.288 40.9496 154.608 40.8996 154.948 40.7996C155.288 40.6796 155.628 40.5096 155.968 40.2896V28.9196C155.688 28.7196 155.378 28.5496 155.038 28.4096C154.698 28.2496 154.328 28.1696 153.928 28.1696C153.188 28.1696 152.688 28.5296 152.428 29.2496C152.168 29.9496 152.038 30.7996 152.038 31.7996V36.6896C152.038 37.4896 152.078 38.2196 152.158 38.8796C152.258 39.5196 152.448 40.0296 152.728 40.4096C153.008 40.7696 153.428 40.9496 153.988 40.9496Z" fill="#3885C8"/>
</svg>
