<svg width="29" height="29" viewBox="0 0 29 29" fill="none" xmlns="http://www.w3.org/2000/svg">
  <path d="M14.4375 0.0625C6.46465 0.0625 0 6.52715 0 14.5C0 22.4729 6.46465 28.9375 14.4375 28.9375C22.4104 28.9375 28.875 22.4729 28.875 14.5C28.875 6.52715 22.4104 0.0625 14.4375 0.0625ZM19.0813 14.7224L12.0431 19.8432C12.0045 19.8709 11.959 19.8874 11.9116 19.891C11.8642 19.8946 11.8168 19.885 11.7745 19.8633C11.7322 19.8417 11.6967 19.8088 11.6719 19.7683C11.647 19.7278 11.6339 19.6812 11.6338 19.6337V9.39854C11.6336 9.35093 11.6467 9.3042 11.6714 9.26354C11.6962 9.22289 11.7318 9.18988 11.7741 9.16819C11.8165 9.1465 11.8641 9.13697 11.9116 9.14065C11.959 9.14433 12.0045 9.16109 12.0431 9.18906L19.0813 14.3066C19.1146 14.3302 19.1417 14.3613 19.1604 14.3975C19.1792 14.4336 19.1889 14.4738 19.1889 14.5145C19.1889 14.5552 19.1792 14.5954 19.1604 14.6315C19.1417 14.6677 19.1146 14.6988 19.0813 14.7224Z" fill="#3885C8"/>
</svg>
