<svg width="70" height="70" viewBox="0 0 70 70" fill="none" xmlns="http://www.w3.org/2000/svg">
<circle cx="34.5117" cy="35.3305" r="33.5117" stroke="#D9D9D9" stroke-width="2"/>
<path d="M50.5239 26.4135C49.4106 26.9068 48.2146 27.2402 46.9573 27.3908C48.2546 26.6146 49.2252 25.3928 49.6879 23.9535C48.4691 24.6775 47.1351 25.1871 45.7439 25.4602C44.8084 24.4613 43.5693 23.7993 42.219 23.5768C40.8687 23.3543 39.4827 23.5839 38.2763 24.2298C37.0698 24.8758 36.1103 25.902 35.5468 27.1491C34.9833 28.3962 34.8473 29.7945 35.1599 31.1268C32.6902 31.0028 30.2741 30.3609 28.0685 29.2427C25.8629 28.1245 23.9171 26.555 22.3573 24.6362C21.8239 25.5562 21.5173 26.6228 21.5173 27.7588C21.5167 28.7815 21.7685 29.7885 22.2504 30.6905C22.7324 31.5925 23.4295 32.3615 24.2799 32.9295C23.2936 32.8981 22.3291 32.6316 21.4666 32.1522V32.2322C21.4665 33.6665 21.9626 35.0567 22.8708 36.1668C23.779 37.277 25.0434 38.0387 26.4493 38.3228C25.5343 38.5705 24.5751 38.6069 23.6439 38.4295C24.0406 39.6636 24.8133 40.7429 25.8538 41.5161C26.8943 42.2893 28.1505 42.7177 29.4466 42.7415C27.2464 44.4687 24.5291 45.4056 21.7319 45.4015C21.2364 45.4016 20.7414 45.3727 20.2493 45.3148C23.0886 47.1404 26.3937 48.1093 29.7693 48.1055C41.1959 48.1055 47.4426 38.6415 47.4426 30.4335C47.4426 30.1668 47.4359 29.8975 47.4239 29.6308C48.639 28.7521 49.6878 27.664 50.5213 26.4175L50.5239 26.4135Z" fill="#D9D9D9"/>
</svg>
